<svg width="32" height="32" viewBox="0 0 32 32" fill="none" xmlns="http://www.w3.org/2000/svg">
<path d="M5.95652 7C5.95652 5.89543 6.81302 5 7.86957 5H25.087C26.1435 5 27 5.89543 27 7V25C27 26.1046 26.1435 27 25.087 27H7.86957C6.81302 27 5.95652 26.1046 5.95652 25V7Z" fill="#FF3939"/>
<path d="M5 8.32076C5 6.48675 6.3131 5 7.93289 5H23.1106C24.7304 5 26.0435 6.48675 26.0435 8.32076V23.6792C26.0435 25.5132 24.7304 27 23.1106 27H7.93289C6.3131 27 5 25.5132 5 23.6792V8.32076Z" fill="#D82E2E"/>
<path d="M13.3705 18.4759C13.3705 18.2908 13.3453 18.1246 13.295 17.9775C13.2489 17.8256 13.1608 17.6879 13.0309 17.5645C12.9009 17.4363 12.7186 17.3106 12.4838 17.1871C12.249 17.0637 11.9451 16.9356 11.5719 16.8027C11.1569 16.6508 10.7628 16.4799 10.3897 16.29C10.0208 16.1001 9.69377 15.8794 9.40869 15.6278C9.1278 15.3715 8.9056 15.0748 8.7421 14.7378C8.58279 14.4008 8.50314 14.0092 8.50314 13.563C8.50314 13.131 8.58699 12.7394 8.75468 12.3881C8.92237 12.0321 9.15715 11.7283 9.459 11.4768C9.76085 11.2204 10.1172 11.0234 10.528 10.8858C10.9431 10.7481 11.398 10.6793 11.8927 10.6793C12.5676 10.6793 13.1567 10.817 13.6597 11.0923C14.1628 11.3676 14.5527 11.7449 14.8294 12.2244C15.1103 12.7038 15.2507 13.2521 15.2507 13.8691H13.3768C13.3768 13.5653 13.3202 13.2995 13.207 13.0717C13.098 12.8391 12.9303 12.6563 12.7039 12.5234C12.4817 12.3905 12.2008 12.3241 11.8612 12.3241C11.5342 12.3241 11.2617 12.381 11.0437 12.4949C10.8257 12.6041 10.6622 12.7536 10.5532 12.9435C10.4442 13.1286 10.3897 13.3375 10.3897 13.5701C10.3897 13.7457 10.4274 13.9047 10.5029 14.0471C10.5825 14.1895 10.6999 14.3225 10.8551 14.4459C11.0102 14.5693 11.2009 14.6856 11.4273 14.7948C11.6537 14.9039 11.9157 15.0107 12.2134 15.1152C12.7123 15.2861 13.1504 15.4783 13.5277 15.6919C13.9092 15.9055 14.2278 16.1452 14.4835 16.411C14.7393 16.6769 14.9321 16.9783 15.0621 17.3153C15.192 17.6523 15.257 18.0344 15.257 18.4617C15.257 18.9126 15.1795 19.3161 15.0244 19.6721C14.8692 20.0281 14.6449 20.3295 14.3515 20.5763C14.058 20.8232 13.708 21.0107 13.3013 21.1388C12.8946 21.267 12.4398 21.3311 11.9367 21.3311C11.4839 21.3311 11.0374 21.2646 10.5972 21.1317C10.157 20.9941 9.75665 20.7876 9.39611 20.5123C9.03976 20.2369 8.75468 19.8857 8.54087 19.4585C8.32706 19.0313 8.22015 18.5257 8.22015 17.9419H10.113C10.113 18.2647 10.157 18.5376 10.2451 18.7607C10.3331 18.9838 10.4568 19.1642 10.6161 19.3018C10.7796 19.4395 10.9724 19.5392 11.1946 19.6009C11.421 19.6626 11.6684 19.6934 11.9367 19.6934C12.2637 19.6934 12.532 19.6412 12.7416 19.5368C12.9554 19.4324 13.1126 19.2876 13.2133 19.1025C13.3181 18.9173 13.3705 18.7085 13.3705 18.4759Z" fill="black"/>
<path d="M21.8474 17.7496H23.7277C23.69 18.4474 23.5202 19.0669 23.2183 19.608C22.9207 20.1491 22.5035 20.5716 21.9669 20.8754C21.4345 21.1792 20.793 21.3311 20.0426 21.3311C19.4557 21.3311 18.9295 21.2172 18.4642 20.9893C17.9988 20.7567 17.6006 20.4244 17.2694 19.9925C16.9424 19.5605 16.6929 19.0384 16.521 18.4261C16.3491 17.8137 16.2632 17.1278 16.2632 16.3683V15.6492C16.2632 14.8897 16.3512 14.2038 16.5273 13.5914C16.7076 12.9744 16.9633 12.4498 17.2945 12.0179C17.6299 11.5859 18.0303 11.2537 18.4956 11.0211C18.961 10.7885 19.4808 10.6722 20.0552 10.6722C20.8182 10.6722 21.4617 10.8288 21.9858 11.1421C22.514 11.4554 22.9228 11.8874 23.212 12.438C23.5055 12.9886 23.6816 13.6152 23.7403 14.3177H21.8537C21.8327 13.9 21.7594 13.5464 21.6336 13.2568C21.5078 12.9625 21.3171 12.7418 21.0613 12.5946C20.8098 12.4427 20.4744 12.3668 20.0552 12.3668C19.7408 12.3668 19.4662 12.4332 19.2314 12.5661C18.9966 12.6991 18.7996 12.9008 18.6403 13.1714C18.481 13.4419 18.3615 13.7837 18.2818 14.1967C18.2064 14.6049 18.1686 15.0843 18.1686 15.6349V16.3683C18.1686 16.9047 18.2043 17.377 18.2755 17.7852C18.3468 18.1887 18.4558 18.5305 18.6025 18.8105C18.7535 19.0859 18.9463 19.2947 19.1811 19.4371C19.42 19.5748 19.7072 19.6436 20.0426 19.6436C20.4367 19.6436 20.7616 19.5724 21.0173 19.43C21.2731 19.2876 21.468 19.0764 21.6022 18.7963C21.7405 18.5162 21.8223 18.1674 21.8474 17.7496Z" fill="black"/>
<path d="M12.7106 18.4759C12.7106 18.2908 12.6854 18.1246 12.6351 17.9775C12.589 17.8256 12.5009 17.6879 12.371 17.5645C12.241 17.4363 12.0587 17.3106 11.8239 17.1871C11.5891 17.0637 11.2852 16.9356 10.912 16.8027C10.497 16.6508 10.1029 16.4799 9.7298 16.29C9.36087 16.1001 9.03387 15.8794 8.74879 15.6278C8.4679 15.3715 8.2457 15.0748 8.0822 14.7378C7.92289 14.4008 7.84324 14.0092 7.84324 13.563C7.84324 13.131 7.92708 12.7394 8.09478 12.3881C8.26247 12.0321 8.49725 11.7283 8.7991 11.4768C9.10095 11.2204 9.4573 11.0234 9.86815 10.8858C10.2832 10.7481 10.7381 10.6793 11.2328 10.6793C11.9077 10.6793 12.4968 10.817 12.9998 11.0923C13.5029 11.3676 13.8928 11.7449 14.1695 12.2244C14.4504 12.7038 14.5908 13.2521 14.5908 13.8691H12.7169C12.7169 13.5653 12.6603 13.2995 12.5471 13.0717C12.4381 12.8391 12.2704 12.6563 12.044 12.5234C11.8218 12.3905 11.5409 12.3241 11.2013 12.3241C10.8743 12.3241 10.6018 12.381 10.3838 12.4949C10.1658 12.6041 10.0023 12.7536 9.8933 12.9435C9.7843 13.1286 9.7298 13.3375 9.7298 13.5701C9.7298 13.7457 9.76753 13.9047 9.84299 14.0471C9.92265 14.1895 10.04 14.3225 10.1952 14.4459C10.3503 14.5693 10.541 14.6856 10.7674 14.7948C10.9938 14.9039 11.2558 15.0107 11.5535 15.1152C12.0524 15.2861 12.4905 15.4783 12.8678 15.6919C13.2493 15.9055 13.5679 16.1452 13.8236 16.411C14.0794 16.6769 14.2722 16.9783 14.4022 17.3153C14.5321 17.6523 14.5971 18.0344 14.5971 18.4617C14.5971 18.9126 14.5196 19.3161 14.3645 19.6721C14.2093 20.0281 13.985 20.3295 13.6916 20.5763C13.3981 20.8232 13.0481 21.0107 12.6414 21.1388C12.2347 21.267 11.7799 21.3311 11.2768 21.3311C10.824 21.3311 10.3775 21.2646 9.93732 21.1317C9.49712 20.9941 9.09675 20.7876 8.73621 20.5123C8.37986 20.2369 8.09478 19.8857 7.88097 19.4585C7.66716 19.0313 7.56025 18.5257 7.56025 17.9419H9.4531C9.4531 18.2647 9.49712 18.5376 9.58516 18.7607C9.6732 18.9838 9.79688 19.1642 9.95619 19.3018C10.1197 19.4395 10.3125 19.5392 10.5347 19.6009C10.7611 19.6626 11.0085 19.6934 11.2768 19.6934C11.6038 19.6934 11.8721 19.6412 12.0817 19.5368C12.2955 19.4324 12.4527 19.2876 12.5534 19.1025C12.6582 18.9173 12.7106 18.7085 12.7106 18.4759Z" fill="white"/>
<path d="M21.1875 17.7496H23.0678C23.0301 18.4474 22.8603 19.0669 22.5584 19.608C22.2608 20.1491 21.8436 20.5716 21.307 20.8754C20.7746 21.1792 20.1331 21.3311 19.3827 21.3311C18.7958 21.3311 18.2696 21.2172 17.8043 20.9893C17.3389 20.7567 16.9407 20.4244 16.6095 19.9925C16.2825 19.5605 16.033 19.0384 15.8611 18.4261C15.6892 17.8137 15.6033 17.1278 15.6033 16.3683V15.6492C15.6033 14.8897 15.6913 14.2038 15.8674 13.5914C16.0477 12.9744 16.3034 12.4498 16.6346 12.0179C16.97 11.5859 17.3704 11.2537 17.8357 11.0211C18.3011 10.7885 18.8209 10.6722 19.3953 10.6722C20.1583 10.6722 20.8018 10.8288 21.3259 11.1421C21.8541 11.4554 22.2629 11.8874 22.5521 12.438C22.8456 12.9886 23.0217 13.6152 23.0804 14.3177H21.1938C21.1728 13.9 21.0995 13.5464 20.9737 13.2568C20.8479 12.9625 20.6572 12.7418 20.4014 12.5946C20.1499 12.4427 19.8145 12.3668 19.3953 12.3668C19.0809 12.3668 18.8063 12.4332 18.5715 12.5661C18.3367 12.6991 18.1397 12.9008 17.9804 13.1714C17.8211 13.4419 17.7016 13.7837 17.6219 14.1967C17.5465 14.6049 17.5087 15.0843 17.5087 15.6349V16.3683C17.5087 16.9047 17.5444 17.377 17.6156 17.7852C17.6869 18.1887 17.7959 18.5305 17.9426 18.8105C18.0936 19.0859 18.2864 19.2947 18.5212 19.4371C18.7601 19.5748 19.0473 19.6436 19.3827 19.6436C19.7768 19.6436 20.1017 19.5724 20.3574 19.43C20.6132 19.2876 20.8081 19.0764 20.9423 18.7963C21.0806 18.5162 21.1624 18.1674 21.1875 17.7496Z" fill="white"/>
</svg>
